<?xml version="1.0" encoding="utf-8"?>
<!-- Generator: Adobe Illustrator 21.1.0, SVG Export Plug-In . SVG Version: 6.00 Build 0)  -->
<svg version="1.1" id="Layer_1" xmlns="http://www.w3.org/2000/svg" xmlns:xlink="http://www.w3.org/1999/xlink" x="0px" y="0px"
	 viewBox="0 0 800 400" style="enable-background:new 0 0 800 400;" xml:space="preserve">
<style type="text/css">
	.st0{fill:#FFFFFF;}
	.st1{fill:#004070;}
	.st2{fill:#E30613;}
</style>
<g>
	<g>
		<path class="st0" d="M54.6,210.5c4.3,7.2,13.4,9.3,20.2,4.8c6.8-4.5,8.9-14,4.5-21.2c-4.3-7.2-13.4-9.3-20.2-4.8
			C52.3,193.9,50.3,203.4,54.6,210.5z"/>
		<path class="st1" d="M54.1,211c-4.6-7.7-2.4-17.9,4.9-22.7c7.3-4.9,17.1-2.6,21.7,5.1c4.6,7.7,2.4,17.9-4.9,22.7
			C68.5,220.9,58.8,218.7,54.1,211z M55.5,210c4.1,6.9,12.9,8.9,19.4,4.6c6.6-4.3,8.5-13.5,4.4-20.3c-4.1-6.9-12.9-8.9-19.4-4.6
			C53.3,194,51.4,203.2,55.5,210z"/>
		<path class="st1" d="M58.5,208.1c3.1,5.2,9.7,6.7,14.6,3.4c4.9-3.3,6.4-10.1,3.3-15.3c-3.1-5.2-9.7-6.7-14.6-3.4
			C56.8,196.1,55.4,202.9,58.5,208.1z"/>
		<polygon class="st1" points="56.3,212.7 81.3,196.2 78.5,191.7 53.6,208.2 		"/>
		<polygon class="st1" points="57.4,190.5 73.2,216.7 77.5,213.8 61.7,187.7 		"/>
		<polygon class="st1" points="68.2,186.5 61.7,216.7 66.6,217.8 73.1,187.7 		"/>
		<polygon class="st1" points="81.3,208.2 52.4,201.4 53.6,196.2 82.4,203 		"/>
		<path class="st0" d="M59.6,207.4c2.7,4.5,8.5,5.9,12.8,3c4.3-2.9,5.6-8.9,2.9-13.4c-2.7-4.5-8.5-5.9-12.8-3
			C58.1,196.8,56.8,202.8,59.6,207.4z"/>
		<path class="st2" d="M60.7,206.6c2.3,3.9,7.2,5,10.9,2.6c3.7-2.4,4.8-7.6,2.5-11.4c-2.3-3.9-7.2-5-10.9-2.6
			C59.5,197.6,58.4,202.7,60.7,206.6z"/>
		<path class="st0" d="M63.3,200c0.6-2.2,0.7-3.9,0.7-3.9s1.4,0.5,3.6,1c1.9,0.4,4,0.1,5.2,1.9c0.9,1.4,0.4,3.4-1.1,4.3
			c-0.7,0.4-1.4,0.6-2.1,0.5l2.7,1.6l-3.8,2.5l-0.3-3.2c-0.2,0.7-0.7,1.4-1.4,1.8c-1.5,1-3.4,0.6-4.2-0.9
			C61.7,203.9,62.8,202,63.3,200z"/>
		<path class="st0" d="M151.1,219.5l-20.5,32.7c-1.1,1.8-3.1,2.8-5.1,2.7l-37.3-2.3c-2-0.1-3.9-1.4-4.8-3.3l-16.5-34.5
			c-1-2.2-0.7-4.8,0.8-6.6l22.9-27.6c1-1.2,2.4-1.9,3.9-2l35-2.9c2.3-0.2,4.5,1.1,5.6,3.3l16.5,34.5
			C152.3,215.4,152.2,217.7,151.1,219.5z"/>
		<path class="st1" d="M130.3,250.4l19.8-31.6c0.9-1.4,1-3.3,0.3-4.8l-16.5-34.5c-0.8-1.6-2.3-2.6-4.1-2.6c-0.1,0-0.2,0-0.4,0
			l-35,2.9c-1.2,0.1-2.3,0.7-3.1,1.6L68.4,209c-1.2,1.5-1.5,3.5-0.6,5.3l9.5,19.7c-1.2-0.5-2.3-1.1-3.3-1.6l-8.2-17.1
			c-1.3-2.6-0.9-5.7,1-7.9l22.9-27.6c1.2-1.4,2.8-2.3,4.6-2.4l35-2.9c2.8-0.2,5.4,1.3,6.7,3.9l16.5,34.5c1.1,2.3,0.9,5-0.4,7.2
			l-19.2,30.6C132,250.7,131.2,250.6,130.3,250.4z"/>
		<path class="st1" d="M70.9,214.4l34.7-1.6l19.1,36.6L109,210.8l20.4-29.4l-23.2,27.4c-0.4,0.5-1,0.8-1.6,0.9L70.9,214.4z"/>
		<path class="st1" d="M136.4,194.4c-0.1,3.2-2.4,5.8-5.2,5.8c-2.8-0.1-5-2.7-4.9-6c0.1-3.2,2.4-5.8,5.2-5.8
			C134.2,188.5,136.4,191.1,136.4,194.4z"/>
		<path class="st1" d="M135.4,214.6c-0.1,3.2-2.4,5.8-5.2,5.8c-2.8-0.1-5-2.7-4.9-6c0.1-3.2,2.4-5.8,5.2-5.8
			C133.3,208.7,135.5,211.4,135.4,214.6z"/>
		<path class="st1" d="M133.2,238.7c-0.1,3.2-2.4,5.8-5.2,5.8c-2.8-0.1-5-2.7-4.9-6s2.4-5.8,5.2-5.8
			C131.1,232.7,133.3,235.4,133.2,238.7z"/>
		<path class="st1" d="M105.9,220.1c1.3,3.1,0.4,6.2-2,7c-2.4,0.8-5.4-1-6.7-4c-1.3-3.1-0.4-6.2,2-7
			C101.6,215.2,104.6,217.1,105.9,220.1z"/>
		<path class="st1" d="M117.4,187.5c-2.1,1.8-4.7,1.8-6,0c-1.2-1.8-0.5-4.8,1.6-6.6c2.1-1.8,4.7-1.8,6,0
			C120.2,182.6,119.5,185.6,117.4,187.5z"/>
		<path class="st1" d="M110,198.3c-2.1,1.8-4.7,1.8-6,0c-1.2-1.8-0.5-4.8,1.6-6.6c2.1-1.8,4.7-1.8,6,0
			C112.8,193.5,112.1,196.5,110,198.3z"/>
		<path class="st1" d="M101.2,208c-2.1,1.8-4.7,1.8-6,0c-1.2-1.8-0.5-4.8,1.6-6.6c2.1-1.8,4.7-1.8,6,0
			C104,203.2,103.3,206.2,101.2,208z"/>
		<path class="st1" d="M81.9,208.8c-1.7,1.5-4,1.5-5,0c-1-1.5-0.4-4,1.3-5.6c1.7-1.5,4-1.5,5,0C84.2,204.8,83.6,207.3,81.9,208.8z"
			/>
		<path class="st1" d="M90.8,198.2c-1.7,1.5-4,1.5-5,0c-1-1.5-0.4-4,1.3-5.6c1.7-1.5,4-1.5,5,0C93.1,194.2,92.5,196.7,90.8,198.2z"
			/>
		<path class="st1" d="M99,187.9c-1.7,1.5-4,1.5-5,0c-1-1.5-0.4-4,1.3-5.6c1.7-1.5,4-1.5,5,0C101.3,183.9,100.7,186.4,99,187.9z"/>
		<path class="st1" d="M82.5,221.1c0.8,2.4,0,4.8-1.9,5.4c-1.9,0.5-4.1-1-5-3.4s0-4.8,1.9-5.4C79.4,217.1,81.6,218.6,82.5,221.1z"/>
		<path class="st1" d="M96.9,230c1.4,2.4,0.9,5.2-1,6.2c-1.9,1-4.6-0.1-6-2.5c-1.4-2.4-1-5.2,1-6.2C92.9,226.5,95.5,227.6,96.9,230z
			"/>
		<path class="st1" d="M88,239.4c1.9,0.9,3.1,3.3,2.7,5.4c-0.4,2.1-2.1,3-4,2.1c-1.9-0.9-3.1-3.3-2.7-5.4
			C84.3,239.4,86.1,238.5,88,239.4z"/>
		<path class="st0" d="M84.1,144.4c-6.2,10.4-3.1,24.1,6.8,30.5c9.9,6.4,22.9,3.2,29.1-7.2c6.2-10.4,3.1-24.1-6.8-30.5
			C103.3,130.7,90.3,134,84.1,144.4z"/>
		<path class="st1" d="M82.8,143.1c6.6-11.1,20.6-14.6,31.3-7.7c10.6,6.9,13.9,21.6,7.3,32.7c-6.6,11.1-20.6,14.6-31.3,7.7
			C79.5,168.9,76.2,154.2,82.8,143.1z M84.8,144.4c-5.9,10-3,23.1,6.5,29.3c9.5,6.2,22.1,3.1,28-6.9c5.9-10,3-23.1-6.5-29.3
			C103.3,131.3,90.7,134.4,84.8,144.4z"/>
		<path class="st1" d="M89.1,147.2c-4.4,7.5-2.2,17.4,4.9,22c7.2,4.7,16.6,2.4,21-5.2c4.4-7.5,2.2-17.4-4.9-22
			C103,137.4,93.6,139.7,89.1,147.2z"/>
		<polygon class="st1" points="82,147.1 118.3,170.6 122.1,164.1 85.9,140.6 		"/>
		<polygon class="st1" points="110.2,134.6 87.7,172.5 94,176.6 116.4,138.7 		"/>
		<polygon class="st1" points="122,146.8 80.5,156.9 82.2,164.4 123.7,154.2 		"/>
		<polygon class="st1" points="103.4,178.2 93.7,134.7 100.8,133 110.5,176.5 		"/>
		<path class="st0" d="M90.7,148.2c-3.9,6.6-2,15.2,4.3,19.3c6.3,4.1,14.5,2.1,18.4-4.5c3.9-6.6,2-15.2-4.3-19.3
			C102.9,139.6,94.6,141.6,90.7,148.2z"/>
		<path class="st2" d="M92.4,149.3c-3.3,5.6-1.7,13,3.7,16.4c5.4,3.5,12.4,1.8,15.7-3.8c3.3-5.6,1.7-13-3.7-16.4
			C102.7,142,95.7,143.7,92.4,149.3z"/>
		<path class="st0" d="M99.2,149.6c0.8,0.5,1.5,2.2,2,3.8c-0.2-1.6-0.3-3.5,0.2-4.3c0.9-1.6,3.2-1.9,5.1-0.6c1.9,1.2,2.6,3.5,1.7,5
			c-0.5,0.8-2.1,1.5-3.6,2.1c1.6-0.2,3.3-0.3,4.1,0.2c1.5,1,1.8,3.4,0.6,5.3c-1.2,2-3.3,2.8-4.8,1.8c-1-0.6-1.9-3.3-2.4-5.1
			l-1.2,5.6l-4.7-3.1l4.2-3.6c-1.7,0.3-4.4,0.7-5.4,0c-1.5-1-1.8-3.4-0.6-5.3C95.6,149.5,97.7,148.7,99.2,149.6z"/>
		<path class="st0" d="M159,223.9c-4.5,7.2-2.6,16.9,4.4,21.8c7,4.8,16.3,2.9,20.9-4.2c4.5-7.2,2.6-16.9-4.4-21.8
			C172.9,214.8,163.5,216.7,159,223.9z"/>
		<path class="st1" d="M158.6,223.3c4.7-7.4,14.2-9.4,21.3-4.5c7.1,4.9,9,14.9,4.3,22.3c-4.7,7.4-14.2,9.4-21.3,4.5
			C155.9,240.8,153.9,230.7,158.6,223.3z M160,224.3c-4.2,6.6-2.5,15.6,3.9,20c6.3,4.4,14.9,2.6,19.1-4.1c4.2-6.6,2.5-15.6-3.9-20
			C172.7,215.8,164.2,217.7,160,224.3z"/>
		<path class="st1" d="M162.8,226.3c-3.2,5-1.9,11.7,2.9,15c4.8,3.3,11.2,1.9,14.3-3c3.2-5,1.9-11.7-2.9-15
			C172.4,219.9,166,221.3,162.8,226.3z"/>
		<polygon class="st1" points="158,226.1 182.1,242.8 184.8,238.4 160.8,221.7 		"/>
		<polygon class="st1" points="177.3,218.2 161.4,243.4 165.5,246.3 181.5,221.1 		"/>
		<polygon class="st1" points="185.1,226.7 156.8,232.7 157.8,237.8 186.1,231.8 		"/>
		<polygon class="st1" points="171.9,247.6 166.1,217.9 171,216.9 176.7,246.5 		"/>
		<path class="st0" d="M163.9,227c-2.8,4.4-1.6,10.3,2.6,13.2c4.2,2.9,9.8,1.7,12.6-2.7c2.8-4.4,1.6-10.3-2.6-13.2
			C172.3,221.4,166.6,222.6,163.9,227z"/>
		<path class="st1" d="M165,227.8c-2.4,3.7-1.4,8.7,2.2,11.2c3.6,2.5,8.3,1.4,10.7-2.3c2.4-3.7,1.4-8.7-2.2-11.2
			C172.1,223,167.4,224.1,165,227.8z"/>
		<path class="st0" d="M166.8,229.1c-1.7,2.7-1,6.2,1.5,8c2.5,1.8,6,1,7.6-1.6c1.7-2.7,1-6.2-1.5-8
			C171.9,225.7,168.5,226.4,166.8,229.1z"/>
		<path class="st2" d="M171.6,228.5c0.8,0.5,1.1,1.5,1,2.3c0.7-0.5,1.6-0.5,2.4,0c1,0.7,1.3,2.1,0.7,3.1c-0.9,1.2-2.4,0.9-3.7,1.2
			c-1.7,0.4-2.8,1-2.8,1s0.1-1.4-0.2-3.1c-0.2-1.4-1.1-2.7-0.4-4C169.2,228,170.6,227.8,171.6,228.5z"/>
		<path class="st0" d="M113.9,188.3l24.1,30c1.3,1.6,3.4,2.4,5.4,2l36.8-6.8c2-0.4,3.7-1.8,4.4-3.8l12.6-36.3
			c0.8-2.3,0.2-4.8-1.5-6.5l-25.8-24.6c-1.1-1.1-2.6-1.6-4.1-1.6l-35.1,1.4c-2.3,0.1-4.4,1.7-5.1,3.9l-12.6,36.3
			C112.2,184.4,112.6,186.6,113.9,188.3z"/>
		<path class="st1" d="M137.1,219l-24.1-30c-1.6-2-2-4.7-1.2-7.1l12.6-36.3c1-2.8,3.4-4.6,6.2-4.7l35.1-1.4l0.3,0
			c1.7,0,3.3,0.7,4.6,1.9l25.8,24.6c2.1,2,2.8,5,1.8,7.8L185.6,210c-0.8,2.4-2.8,4.2-5.3,4.6l-36.8,6.8c-0.4,0.1-0.8,0.1-1.2,0.1
			C140.3,221.6,138.4,220.6,137.1,219z M130.7,143.3c-1.9,0.1-3.5,1.3-4.1,3.1L114,182.8c-0.6,1.6-0.3,3.4,0.8,4.7l24.1,30
			c1,1.3,2.7,1.9,4.3,1.6l36.8-6.8c1.6-0.3,2.9-1.5,3.5-3.1l12.6-36.3c0.6-1.8,0.2-3.9-1.2-5.2L169,143.2c-0.8-0.8-1.9-1.2-3.1-1.2
			L130.7,143.3z"/>
		<path class="st1" d="M193,173.4l-34.6,2.6l-14.9,38.7l11.3-40.2l-23.5-26.7l26.1,24.4c0.5,0.4,1.1,0.7,1.7,0.7L193,173.4z"/>
		<path class="st2" d="M157.3,153.3c-0.6,2,1.5,4.6,4.8,5.7c3.3,1.1,6.4,0.3,7.1-1.7c0.6-2-1.5-4.6-4.8-5.7
			C161,150.4,157.9,151.2,157.3,153.3z"/>
		<path class="st2" d="M126.9,165.7c0.4,3.2,3,5.5,5.8,5.1c2.8-0.4,4.6-3.3,4.2-6.5c-0.4-3.2-3-5.5-5.8-5.1
			C128.3,159.6,126.5,162.5,126.9,165.7z"/>
		<path class="st2" d="M133,201.2c0.4,3.2,3,5.5,5.8,5.1c2.8-0.4,4.6-3.3,4.2-6.5c-0.4-3.2-3-5.5-5.8-5.1
			C134.4,195.1,132.6,198,133,201.2z"/>
		<path class="st2" d="M159.3,182c-1.3,3.1-0.4,6.6,2.1,7.8c2.5,1.2,5.6-0.4,7-3.5c1.3-3.1,0.4-6.6-2.1-7.8
			C163.7,177.3,160.6,178.9,159.3,182z"/>
		<path class="st2" d="M151.7,204.9c-1.3,3.1-0.3,6.6,2.2,7.8c2.5,1.1,5.6-0.5,6.9-3.6s0.3-6.6-2.2-7.8
			C156.1,200.1,153,201.8,151.7,204.9z"/>
		<path class="st2" d="M181.1,180.6c-1.1,2.7-0.3,5.6,1.8,6.5c2.1,1,4.7-0.4,5.8-3.1c1.1-2.7,0.3-5.6-1.8-6.5
			C184.8,176.5,182.2,177.9,181.1,180.6z"/>
		<path class="st2" d="M174.5,201.9c-1.1,2.7-0.3,5.6,1.8,6.5c2.1,1,4.7-0.4,5.8-3.1c1.1-2.6,0.3-5.6-1.8-6.5
			C178.2,197.8,175.6,199.2,174.5,201.9z"/>
		<path class="st1" d="M112.8,246.7c-2-0.5-4.1-1.1-6.3-1.8c-0.5-0.6-0.8-1.2-1.1-1.9c-1.3-3.1-0.4-6.2,2-7c2.4-0.8,5.4,1,6.7,4
			C115.1,242.8,114.6,245.5,112.8,246.7z"/>
		<path class="st1" d="M55,186.9c-6.9,3.9-11.3,8.9-12.2,14.8c-3.1,19.5,31.8,41.8,77.9,49.8c46.1,8,86-1.4,89-20.9
			c0.2-1,0.2-2.1,0.2-3.1c0.7,2.4,0.9,4.9,0.5,7.2c-3.2,20.2-44.5,30-92.4,21.7c-47.8-8.3-84-31.4-80.8-51.6
			C38.4,197.2,44.9,191.1,55,186.9z"/>
		<path class="st1" d="M195.1,256.1c0,0-39.3,17.7-97.2,0.2c-61.1-18.4-65.1-44-65.1-44s2.5,33.3,66.5,49.8
			C164,278.7,195.1,256.1,195.1,256.1z"/>
	</g>
	<g>
		<path class="st1" d="M223.9,196.4c0-17.4,13.2-28.5,29.3-28.5c11.5,0,18.7,5.8,22.8,12.3l-9.8,5.3c-2.5-3.9-7.2-7.2-13.1-7.2
			c-10,0-17.3,7.7-17.3,18.1c0,10.4,7.3,18.1,17.3,18.1c4.9,0,9.5-2.1,11.7-4.2v-6.6h-14.5v-10.2h26.3v21.2
			c-5.6,6.3-13.5,10.4-23.5,10.4C237.1,225,223.9,213.8,223.9,196.4z"/>
		<path class="st1" d="M310.8,224v-5.1c-3.1,4-7.4,6.1-12.3,6.1c-10,0-17.7-7.6-17.7-21c0-13,7.5-20.9,17.7-20.9
			c4.7,0,9.1,2,12.3,6.1V184h10.6V224H310.8z M310.8,211.1V197c-1.7-2.6-5.5-4.6-9-4.6c-6,0-10.2,4.7-10.2,11.6
			c0,6.9,4.1,11.7,10.2,11.7C305.2,215.6,309,213.7,310.8,211.1z"/>
		<path class="st1" d="M378.8,224v-25.2c0-3.7-1.7-6.4-6-6.4c-3.7,0-6.8,2.5-8.3,4.6V224H354v-25.2c0-3.7-1.7-6.4-6-6.4
			c-3.6,0-6.7,2.5-8.3,4.6V224h-10.5V184h10.5v5.1c1.7-2.3,6.9-6.1,13.1-6.1c5.9,0,9.7,2.7,11.1,7.2c2.3-3.6,7.6-7.2,13.7-7.2
			c7.4,0,11.7,3.9,11.7,12.1V224H378.8z"/>
		<path class="st1" d="M397.3,224v-55.1h10.5v20.3c3.1-4.1,7.6-6.1,12.3-6.1c10.2,0,17.7,7.9,17.7,20.9c0,13.4-7.6,21-17.7,21
			c-4.8,0-9.2-2.1-12.3-6.1v5.1H397.3z M416.9,215.6c6,0,10.1-4.7,10.1-11.7c0-6.9-4-11.6-10.1-11.6c-3.5,0-7.3,2-9.1,4.6v14.1
			C409.7,213.7,413.5,215.6,416.9,215.6z"/>
		<path class="st1" d="M443.3,224v-55.1h10.5V224H443.3z"/>
		<path class="st1" d="M459.2,204c0-11.6,8.6-20.9,20.7-20.9c12,0,20,8.9,20,21.9v2.5h-29.7c0.7,4.9,4.7,8.9,11.5,8.9
			c3.4,0,8-1.4,10.6-3.9l4.7,6.9c-4,3.6-10.2,5.5-16.4,5.5C468.4,225,459.2,216.8,459.2,204z M479.8,191.6c-6.5,0-9.3,4.5-9.8,8.5
			h19.7C489.4,196.4,486.8,191.6,479.8,191.6z"/>
		<g>
			<polygon class="st2" points="505.2,225 514.1,225 514.1,199.9 542.8,199.9 542.8,191.7 514.1,191.7 514.1,176 543.4,176 
				543.4,167.8 505.2,167.8 			"/>
			<path class="st2" d="M555.5,187.7V183h-8.3v42h8.3v-29c1.8-2.9,6.5-5.6,9.9-5.6c0.8,0,1.5,0.1,2.3,0.2l1.1,0.1v-8.6h-1
				C563.3,182.1,559,184.1,555.5,187.7z"/>
			<path class="st2" d="M589.6,182c-11.8,0-20.7,9.4-20.7,21.9c0,13,8.8,22,21.4,22c6.5,0,12.3-2.2,16.6-6.5l0.6-0.6l-4.2-5.8
				l-0.9,0.9c-3,3.1-7.2,4.8-11.7,4.8c-8.1,0-12.3-5.7-13.2-11.7h32.1v-2.6C609.8,191.2,601.5,182,589.6,182z M601.5,200.4h-24
				c0.7-4.8,4.2-11.2,11.9-11.2C597.6,189.2,601,195.5,601.5,200.4z"/>
			<path class="st2" d="M653,204.5c0-13.2-8.3-22.4-20.2-22.4c-11.8,0-20.7,9.4-20.7,21.9c0,13,8.8,22,21.4,22
				c6.5,0,12.3-2.2,16.6-6.5l0.6-0.6l-4.2-5.8l-0.9,0.9c-3,3.1-7.2,4.8-11.7,4.8c-8.1,0-12.3-5.7-13.2-11.7H653V204.5z M644.8,200.4
				h-24c0.7-4.8,4.2-11.2,11.9-11.2C640.9,189.2,644.3,195.5,644.8,200.4z"/>
		</g>
		<path class="st1" d="M654.7,221.5c0-1.5,1.3-2.9,2.9-2.9c1.6,0,2.9,1.3,2.9,2.9c0,1.6-1.3,2.9-2.9,2.9
			C656,224.4,654.7,223.1,654.7,221.5z"/>
		<path class="st1" d="M665.3,219.3v-11.5H662V204h3.3v-5.5h4.3v5.5h4.1v3.8h-4.1v10.5c0,1.4,0.7,2.4,1.9,2.4c0.8,0,1.6-0.4,1.9-0.7
			l1,3.3c-0.8,0.7-2.1,1.3-4.1,1.3C667.1,224.5,665.3,222.6,665.3,219.3z"/>
		<path class="st1" d="M676.4,214c0-5.7,3.9-10.5,10.3-10.5c6.4,0,10.3,4.7,10.3,10.5c0,5.7-3.9,10.5-10.3,10.5
			C680.3,224.5,676.4,219.7,676.4,214z M692.4,214c0-3.5-2-6.6-5.7-6.6c-3.7,0-5.7,3.1-5.7,6.6c0,3.6,2.1,6.7,5.7,6.7
			C690.4,220.6,692.4,217.5,692.4,214z"/>
		<path class="st1" d="M715.4,224v-2.7c-1.5,2-3.8,3.2-6.4,3.2c-5.1,0-8.8-3.9-8.8-10.5c0-6.5,3.7-10.5,8.8-10.5
			c2.5,0,4.8,1.1,6.4,3.3v-10.4h4.3V224H715.4z M715.4,217.9V210c-1-1.5-3.1-2.7-5.1-2.7c-3.5,0-5.7,2.8-5.7,6.6
			c0,3.9,2.2,6.7,5.7,6.7C712.3,220.6,714.4,219.4,715.4,217.9z"/>
		<path class="st1" d="M739.4,224v-2.7c-1.5,2-3.8,3.2-6.4,3.2c-5.1,0-8.8-3.9-8.8-10.5c0-6.5,3.7-10.5,8.8-10.5
			c2.5,0,4.8,1.1,6.4,3.3V204h4.3v20H739.4z M739.4,217.9V210c-1-1.5-3.1-2.7-5.1-2.7c-3.5,0-5.7,2.8-5.7,6.6c0,3.9,2.2,6.7,5.7,6.7
			C736.3,220.6,738.4,219.4,739.4,217.9z"/>
		<path class="st1" d="M749.1,229.1l2-3.1c1.4,1.8,3.8,2.6,6,2.6c3.5,0,5.6-2,5.6-5.5v-2.3c-1.4,1.6-3.9,3.1-7,3.1
			c-4.3,0-6.5-2.3-6.5-6.3V204h4.3v11.9c0,3.1,1.6,4.1,4.1,4.1c2.2,0,4.1-1.3,5.1-2.6V204h4.3v19c0,6-4.2,9.1-10,9.1
			C753.9,232.1,751.3,231.1,749.1,229.1z"/>
	</g>
</g>
</svg>
